<svg width="64" height="65" viewBox="0 0 64 65" fill="none" xmlns="http://www.w3.org/2000/svg">
<rect y="0.5" width="64" height="64" rx="32" fill="#EA3A4B" fill-opacity="0.05"/>
<path d="M35.5306 30.0306L33.0603 32.5L35.5306 34.9694C35.6003 35.0391 35.6556 35.1218 35.6933 35.2128C35.731 35.3039 35.7504 35.4015 35.7504 35.5C35.7504 35.5985 35.731 35.6961 35.6933 35.7872C35.6556 35.8782 35.6003 35.9609 35.5306 36.0306C35.4609 36.1003 35.3782 36.1556 35.2872 36.1933C35.1961 36.231 35.0986 36.2504 35 36.2504C34.9015 36.2504 34.8039 36.231 34.7128 36.1933C34.6218 36.1556 34.5391 36.1003 34.4694 36.0306L32 33.5603L29.5306 36.0306C29.4609 36.1003 29.3782 36.1556 29.2872 36.1933C29.1961 36.231 29.0986 36.2504 29 36.2504C28.9015 36.2504 28.8039 36.231 28.7128 36.1933C28.6218 36.1556 28.5391 36.1003 28.4694 36.0306C28.3997 35.9609 28.3444 35.8782 28.3067 35.7872C28.269 35.6961 28.2496 35.5985 28.2496 35.5C28.2496 35.4015 28.269 35.3039 28.3067 35.2128C28.3444 35.1218 28.3997 35.0391 28.4694 34.9694L30.9397 32.5L28.4694 30.0306C28.3286 29.8899 28.2496 29.699 28.2496 29.5C28.2496 29.301 28.3286 29.1101 28.4694 28.9694C28.6101 28.8286 28.801 28.7496 29 28.7496C29.199 28.7496 29.3899 28.8286 29.5306 28.9694L32 31.4397L34.4694 28.9694C34.5391 28.8997 34.6218 28.8444 34.7128 28.8067C34.8039 28.769 34.9015 28.7496 35 28.7496C35.0986 28.7496 35.1961 28.769 35.2872 28.8067C35.3782 28.8444 35.4609 28.8997 35.5306 28.9694C35.6003 29.0391 35.6556 29.1218 35.6933 29.2128C35.731 29.3039 35.7504 29.4015 35.7504 29.5C35.7504 29.5985 35.731 29.6961 35.6933 29.7872C35.6556 29.8782 35.6003 29.9609 35.5306 30.0306ZM41.75 32.5C41.75 34.4284 41.1782 36.3134 40.1068 37.9168C39.0355 39.5202 37.5127 40.7699 35.7312 41.5078C33.9496 42.2458 31.9892 42.4389 30.0979 42.0627C28.2066 41.6865 26.4693 40.7579 25.1057 39.3943C23.7422 38.0307 22.8136 36.2934 22.4373 34.4021C22.0611 32.5108 22.2542 30.5504 22.9922 28.7688C23.7301 26.9873 24.9798 25.4645 26.5832 24.3932C28.1866 23.3218 30.0716 22.75 32 22.75C34.585 22.7527 37.0634 23.7808 38.8913 25.6087C40.7192 27.4366 41.7473 29.915 41.75 32.5ZM40.25 32.5C40.25 30.8683 39.7661 29.2733 38.8596 27.9165C37.9531 26.5598 36.6646 25.5024 35.1571 24.878C33.6497 24.2536 31.9909 24.0902 30.3905 24.4085C28.7902 24.7268 27.3202 25.5126 26.1664 26.6664C25.0126 27.8202 24.2269 29.2902 23.9085 30.8905C23.5902 32.4908 23.7536 34.1496 24.378 35.6571C25.0024 37.1646 26.0598 38.4531 27.4165 39.3596C28.7733 40.2661 30.3683 40.75 32 40.75C34.1873 40.7475 36.2843 39.8775 37.8309 38.3309C39.3775 36.7843 40.2475 34.6873 40.25 32.5Z" fill="#EA3A4B"/>
</svg>
