<svg width="64" height="65" viewBox="0 0 64 65" fill="none" xmlns="http://www.w3.org/2000/svg">
<rect y="0.5" width="64" height="64" rx="32" fill="#45B150" fill-opacity="0.05"/>
<path d="M36.2806 29.7194C36.3504 29.789 36.4057 29.8717 36.4434 29.9628C36.4812 30.0538 36.5006 30.1514 36.5006 30.25C36.5006 30.3486 36.4812 30.4462 36.4434 30.5372C36.4057 30.6283 36.3504 30.711 36.2806 30.7806L31.0306 36.0306C30.961 36.1004 30.8783 36.1557 30.7872 36.1934C30.6962 36.2312 30.5986 36.2506 30.5 36.2506C30.4014 36.2506 30.3038 36.2312 30.2128 36.1934C30.1218 36.1557 30.039 36.1004 29.9694 36.0306L27.7194 33.7806C27.5786 33.6399 27.4996 33.449 27.4996 33.25C27.4996 33.051 27.5786 32.8601 27.7194 32.7194C27.8601 32.5786 28.051 32.4996 28.25 32.4996C28.449 32.4996 28.6399 32.5786 28.7806 32.7194L30.5 34.4397L35.2194 29.7194C35.289 29.6496 35.3718 29.5943 35.4628 29.5566C35.5538 29.5188 35.6514 29.4994 35.75 29.4994C35.8486 29.4994 35.9462 29.5188 36.0372 29.5566C36.1283 29.5943 36.211 29.6496 36.2806 29.7194ZM41.75 32.5C41.75 34.4284 41.1782 36.3134 40.1068 37.9168C39.0355 39.5202 37.5127 40.7699 35.7312 41.5078C33.9496 42.2458 31.9892 42.4389 30.0979 42.0627C28.2066 41.6865 26.4693 40.7579 25.1057 39.3943C23.7422 38.0307 22.8136 36.2934 22.4373 34.4021C22.0611 32.5108 22.2542 30.5504 22.9922 28.7688C23.7301 26.9873 24.9798 25.4645 26.5832 24.3932C28.1866 23.3218 30.0716 22.75 32 22.75C34.585 22.7527 37.0634 23.7808 38.8913 25.6087C40.7192 27.4366 41.7473 29.915 41.75 32.5ZM40.25 32.5C40.25 30.8683 39.7661 29.2733 38.8596 27.9165C37.9531 26.5598 36.6646 25.5024 35.1571 24.878C33.6497 24.2536 31.9909 24.0902 30.3905 24.4085C28.7902 24.7268 27.3202 25.5126 26.1664 26.6664C25.0126 27.8202 24.2269 29.2902 23.9085 30.8905C23.5902 32.4908 23.7536 34.1496 24.378 35.6571C25.0024 37.1646 26.0598 38.4531 27.4165 39.3596C28.7733 40.2661 30.3683 40.75 32 40.75C34.1873 40.7475 36.2843 39.8775 37.8309 38.3309C39.3775 36.7843 40.2475 34.6873 40.25 32.5Z" fill="#45B150"/>
</svg>
