<svg width="105" height="24" viewBox="0 0 105 24" fill="none" xmlns="http://www.w3.org/2000/svg">
<g clip-path="url(#clip0_192_4036)">
<path fill-rule="evenodd" clip-rule="evenodd" d="M0.334473 11.923C0.334473 10.323 1.62654 9.02564 3.21961 9.02564C4.81333 9.02564 6.10548 10.323 6.10548 11.923C6.10548 13.5236 4.81333 14.821 3.21961 14.821C1.62654 14.821 0.334473 13.5243 0.334473 11.923ZM20.6022 14.821C19.0084 14.821 17.717 13.5236 17.717 11.923C17.717 10.323 19.0084 9.02564 20.6022 9.02564C22.1952 9.02564 23.488 10.323 23.488 11.923C23.488 13.5236 22.1952 14.821 20.6022 14.821ZM20.6022 0.333008C14.2286 0.333008 9.06085 5.5223 9.06085 11.923C9.06085 18.3249 14.2279 23.5137 20.6022 23.5137C26.9771 23.5137 32.1441 18.3249 32.1441 11.923C32.1441 5.52296 26.9771 0.333008 20.6022 0.333008Z" fill="#DA3743"/>
<path fill-rule="evenodd" clip-rule="evenodd" d="M103.093 11.0265C103.275 11.0265 103.383 10.9443 103.383 10.7957C103.383 10.6604 103.309 10.5717 103.106 10.5717H102.917V11.0264L103.093 11.0265ZM102.64 10.3419H103.153C103.437 10.3419 103.68 10.4573 103.68 10.7818C103.681 10.8618 103.657 10.9401 103.613 11.0066C103.568 11.0732 103.505 11.1249 103.43 11.1552L103.741 11.7185H103.43L103.193 11.2438H102.917V11.7185H102.64L102.64 10.3419ZM104.131 11.0465C104.131 10.4099 103.693 9.95515 103.127 9.95515C102.559 9.95515 102.127 10.4099 102.127 11.0465C102.127 11.6912 102.559 12.1311 103.127 12.1311C103.693 12.1311 104.131 11.6912 104.131 11.0465ZM101.857 11.0465C101.857 10.2532 102.431 9.71116 103.127 9.71116C103.828 9.71116 104.402 10.2532 104.402 11.0465C104.402 11.8399 103.828 12.3825 103.127 12.3825C102.431 12.3825 101.857 11.8399 101.857 11.0465ZM93.3866 16.4685C93.47 16.4676 93.5498 16.4342 93.6088 16.3754C93.6678 16.3166 93.7014 16.237 93.7023 16.1539V14.9905C93.7017 14.9076 93.6686 14.8281 93.6099 14.7693C93.5513 14.7104 93.4718 14.6768 93.3886 14.6758H93.3383C93.1965 14.6758 93.0554 14.5345 93.0554 14.3918V7.49852C93.0554 7.34129 92.8981 7.18379 92.7417 7.18379H91.5881C91.4316 7.18379 91.2751 7.34109 91.2751 7.49852V15.1352L91.2801 15.3337C91.2801 15.9024 91.8466 16.4704 92.4124 16.4704L93.3866 16.4685ZM42.6087 9.0045C44.1784 9.0045 45.5032 10.3398 45.5032 11.9231C45.5038 12.6893 45.1993 13.4245 44.6566 13.9671C44.1139 14.5096 43.3773 14.8154 42.6087 14.8171C41.0203 14.8171 39.7289 13.5204 39.7289 11.9231C39.7289 10.3138 41.0203 9.0045 42.6087 9.0045ZM42.6087 7.16648C40.0118 7.16648 37.8984 9.29977 37.8984 11.9231C37.8984 14.5764 39.9663 16.6558 42.6087 16.6558C45.2584 16.6558 47.3337 14.5765 47.3337 11.9225C47.3337 9.30049 45.2136 7.16648 42.6087 7.16648ZM80.196 14.5838C80.1111 14.8272 79.5982 15.2845 79.0143 15.2845C78.4017 15.2845 78.06 14.9125 78.06 14.3545C78.06 13.7678 78.4725 13.4105 79.2276 13.4105C79.7546 13.4105 80.196 13.6106 80.196 13.6106V14.5838ZM79.427 9.70585C78.3589 9.70585 77.3189 9.97715 77.1765 10.0345C77.0339 10.0771 76.9056 10.1917 76.9623 10.4351L77.1054 11.1792C77.1335 11.3792 77.2619 11.5365 77.4752 11.4651C77.8605 11.3505 78.7292 11.2218 79.3278 11.2218C80.0254 11.2218 80.2675 11.6224 80.2387 12.4665C80.2387 12.4665 79.6408 12.2804 78.9714 12.2804C77.3047 12.2804 76.3497 13.1818 76.3497 14.3544C76.3497 15.7711 77.2619 16.6145 78.5721 16.6145C78.9545 16.6203 79.3342 16.5499 79.6889 16.4075C80.0437 16.2651 80.3664 16.0535 80.638 15.7851V16.1405C80.638 16.3126 80.7805 16.4551 80.9516 16.4551H81.0674C81.0807 16.4572 81.0941 16.4581 81.1076 16.4577H81.5924C81.6756 16.4566 81.7551 16.4231 81.8138 16.3642C81.8725 16.3054 81.9056 16.2259 81.9061 16.1429V12.5809C81.9061 10.7783 81.4781 9.70585 79.427 9.70585ZM67.469 9.70585C66.2076 9.70585 65.5957 10.3851 65.3509 10.6591V10.1631C65.3504 10.0802 65.3172 10.0008 65.2586 9.94192C65.1999 9.88308 65.1205 9.84954 65.0373 9.84849H64.2922C64.2089 9.84937 64.1294 9.88289 64.0707 9.94177C64.012 10.0006 63.9789 10.0801 63.9786 10.1631V16.1432C63.9815 16.2253 64.0155 16.3034 64.0736 16.3617C64.1317 16.42 64.2098 16.4544 64.2922 16.4578H65.3462C65.6599 16.4578 65.7596 16.3858 65.7596 16.1432V12.3665C65.916 11.9085 66.3293 11.3365 67.1841 11.3365C67.9812 11.3365 68.323 11.8658 68.323 12.7238V16.1432C68.323 16.3145 68.4661 16.4578 68.6374 16.4578H69.7904C69.8728 16.4544 69.9508 16.42 70.009 16.3617C70.0671 16.3034 70.1011 16.2253 70.104 16.1432V12.7238C70.104 11.1218 69.5623 9.70585 67.469 9.70585ZM51.7845 14.9845C50.9579 14.9845 50.4168 14.6125 50.4168 14.6125V12.2511C50.5594 11.8792 51.0154 11.3358 51.8701 11.3358C52.8954 11.3358 53.4224 12.2372 53.4224 13.1665C53.4224 14.0965 52.868 14.9845 51.7845 14.9845ZM52.1122 9.70585C50.7586 9.70585 50.0082 10.6325 49.9634 10.6905V10.1638C49.9631 10.0808 49.93 10.0011 49.8713 9.94215C49.8126 9.88317 49.7331 9.84954 49.6498 9.84849H48.9495C48.8664 9.84971 48.7871 9.88333 48.7286 9.94215C48.6701 10.001 48.637 10.0803 48.6365 10.1631V18.8318C48.6393 18.914 48.6731 18.9921 48.7311 19.0506C48.7891 19.109 48.8671 19.1435 48.9495 19.1471H50.1038C50.2603 19.1471 50.4168 18.9891 50.4168 18.8318V16.3432C50.7158 16.4578 51.3431 16.6151 51.9979 16.6151C53.9641 16.6151 55.2602 15.0985 55.2602 13.1671C55.2602 11.1644 53.9066 9.70585 52.1122 9.70585ZM99.088 12.3231C99.0599 11.6791 98.547 11.1785 97.8207 11.1785C97.0228 11.1785 96.5098 11.6651 96.4249 12.3231H99.088ZM97.8642 9.70516C99.5729 9.70516 100.883 10.9785 100.883 12.7665C100.883 12.8665 100.868 13.0951 100.855 13.1958C100.847 13.2748 100.811 13.3484 100.754 13.4034C100.696 13.4584 100.621 13.4912 100.541 13.4958H96.3253C96.3405 14.3112 97.0088 15.0265 97.9638 15.0265C98.6186 15.0265 99.074 14.7831 99.3736 14.5398C99.5301 14.4111 99.7013 14.3972 99.801 14.5398L100.356 15.2838C100.47 15.4126 100.484 15.5705 100.328 15.7132C99.6483 16.3006 98.7772 16.621 97.8776 16.6145C95.912 16.6145 94.5444 15.0412 94.5444 13.1525C94.5444 11.2932 95.9126 9.70516 97.8642 9.70516ZM86.7154 14.9845C85.8607 14.9845 85.4046 14.4405 85.2621 14.0685V11.7085C85.2621 11.7085 85.8038 11.3365 86.6298 11.3365C87.7126 11.3365 88.2684 12.2232 88.2684 13.1532C88.2684 14.0832 87.7407 14.9845 86.7154 14.9845ZM86.8718 9.70585C86.2164 9.70585 85.5611 9.86307 85.2621 9.99183V7.47383C85.2591 7.39166 85.2252 7.31362 85.1671 7.2553C85.1089 7.19697 85.0308 7.16265 84.9484 7.15918H83.7948C83.6383 7.15918 83.4817 7.3164 83.4817 7.47383V16.1432C83.4847 16.2252 83.5185 16.3032 83.5765 16.3615C83.6345 16.4198 83.7124 16.4542 83.7948 16.4578H84.2937C84.3038 16.4578 84.3114 16.4578 84.3218 16.4553H84.4555C84.5389 16.4546 84.6187 16.4212 84.6776 16.3623C84.7366 16.3034 84.7699 16.2238 84.7704 16.1406V15.652L84.778 15.6267C84.778 15.6267 85.5338 16.6134 86.9717 16.6134C88.7674 16.6134 90.0634 15.0401 90.0634 13.1521C90.0634 11.2208 88.8234 9.70585 86.8718 9.70585ZM76.7932 7.15918H70.0932C70.0576 7.15935 70.0223 7.16648 69.9895 7.18025C69.9566 7.19401 69.9268 7.21412 69.9017 7.23938C69.8766 7.26464 69.8567 7.2946 69.8432 7.3275C69.8297 7.36041 69.8229 7.39561 69.8231 7.43116V8.60449C69.8231 8.74711 69.9368 8.87585 70.0932 8.87585H72.5102V16.1858C72.5122 16.257 72.5414 16.3247 72.5917 16.3752C72.642 16.4258 72.7098 16.4553 72.7811 16.4578H74.1053C74.1768 16.4555 74.2447 16.426 74.2952 16.3755C74.3456 16.3249 74.3749 16.2571 74.3769 16.1858V8.87585H76.7932C76.8289 8.87577 76.8642 8.86859 76.8972 8.85486C76.9301 8.84114 76.9601 8.82107 76.9853 8.79581C77.0104 8.77054 77.0303 8.74063 77.0438 8.70768C77.0573 8.67473 77.0642 8.6394 77.064 8.6038V7.43116C77.0642 7.39555 77.0573 7.3603 77.0438 7.32735C77.0303 7.2944 77.0104 7.26442 76.9853 7.23915C76.9601 7.21388 76.9301 7.19382 76.8972 7.1801C76.8642 7.16637 76.8289 7.15927 76.7932 7.15918ZM60.8439 12.3231C60.8151 11.6791 60.3022 11.1785 59.5759 11.1785C58.7787 11.1785 58.265 11.6651 58.1801 12.3231H60.8439ZM59.6187 9.70516C61.3281 9.70516 62.6383 10.9785 62.6383 12.7665C62.6383 12.8665 62.6256 13.0951 62.6102 13.1958C62.6021 13.2748 62.5661 13.3483 62.5087 13.4033C62.4512 13.4582 62.376 13.491 62.2965 13.4958H58.0805C58.0956 14.3112 58.764 15.0265 59.719 15.0265C60.3744 15.0265 60.8292 14.7831 61.1288 14.5398C61.2853 14.4111 61.4565 14.3972 61.5562 14.5398L62.1113 15.2838C62.2255 15.4126 62.2397 15.5705 62.0832 15.7132C61.4035 16.3006 60.5324 16.621 59.6328 16.6145C57.6672 16.6145 56.3002 15.0412 56.3002 13.1525C56.3002 11.2932 57.6671 9.70516 59.6187 9.70516Z" fill="#141A26"/>
</g>
<defs>
<clipPath id="clip0_192_4036">
<rect width="105" height="24" fill="white"/>
</clipPath>
</defs>
</svg>
