<svg width="33" height="15" viewBox="0 0 33 15" fill="none" xmlns="http://www.w3.org/2000/svg">
<g clip-path="url(#clip0_407_12766)">
<rect x="1" y="1" width="31" height="13" rx="3" fill="#EA3A4B"/>
<circle cx="-2" cy="-45" r="59" fill="#D62637"/>
<path d="M7.56889 11V4.45455H10.1513C10.6477 4.45455 11.0707 4.54936 11.4201 4.73899C11.7695 4.92649 12.0359 5.1875 12.2191 5.52202C12.4045 5.8544 12.4972 6.23793 12.4972 6.67259C12.4972 7.10724 12.4034 7.49077 12.2159 7.82315C12.0284 8.15554 11.7567 8.41442 11.4009 8.59979C11.0472 8.78516 10.619 8.87784 10.1161 8.87784H8.47017V7.76882H9.8924C10.1587 7.76882 10.3782 7.72301 10.5508 7.63139C10.7255 7.53764 10.8555 7.40874 10.9407 7.24467C11.0281 7.07848 11.0717 6.88778 11.0717 6.67259C11.0717 6.45526 11.0281 6.26562 10.9407 6.10369C10.8555 5.93963 10.7255 5.81285 10.5508 5.72337C10.3761 5.63175 10.1545 5.58594 9.88601 5.58594H8.95277V11H7.56889ZM13.396 11V4.45455H15.9784C16.4727 4.45455 16.8946 4.54297 17.2441 4.71982C17.5956 4.89453 17.863 5.14276 18.0463 5.46449C18.2316 5.78409 18.3243 6.16016 18.3243 6.59268C18.3243 7.02734 18.2306 7.40128 18.0431 7.71449C17.8556 8.02557 17.5839 8.2642 17.2281 8.4304C16.8744 8.59659 16.4461 8.67969 15.9433 8.67969H14.2142V7.56747H15.7195C15.9838 7.56747 16.2032 7.53125 16.3779 7.45881C16.5526 7.38636 16.6826 7.2777 16.7678 7.13281C16.8552 6.98793 16.8989 6.80788 16.8989 6.59268C16.8989 6.37535 16.8552 6.19212 16.7678 6.04297C16.6826 5.89382 16.5516 5.78089 16.3747 5.70419C16.2 5.62536 15.9795 5.58594 15.7132 5.58594H14.7799V11H13.396ZM16.9308 8.02131L18.5576 11H17.0299L15.4383 8.02131H16.9308ZM25.3172 7.72727C25.3172 8.44105 25.1819 9.0483 24.9113 9.54901C24.6428 10.0497 24.2764 10.4322 23.8119 10.6964C23.3495 10.9585 22.8296 11.0895 22.2522 11.0895C21.6705 11.0895 21.1485 10.9574 20.6862 10.6932C20.2238 10.429 19.8584 10.0465 19.5899 9.54581C19.3215 9.0451 19.1872 8.43892 19.1872 7.72727C19.1872 7.01349 19.3215 6.40625 19.5899 5.90554C19.8584 5.40483 20.2238 5.02344 20.6862 4.76136C21.1485 4.49716 21.6705 4.36506 22.2522 4.36506C22.8296 4.36506 23.3495 4.49716 23.8119 4.76136C24.2764 5.02344 24.6428 5.40483 24.9113 5.90554C25.1819 6.40625 25.3172 7.01349 25.3172 7.72727ZM23.9142 7.72727C23.9142 7.26491 23.8449 6.875 23.7064 6.55753C23.57 6.24006 23.3772 5.99929 23.1279 5.83523C22.8786 5.67116 22.5867 5.58913 22.2522 5.58913C21.9177 5.58913 21.6258 5.67116 21.3765 5.83523C21.1272 5.99929 20.9333 6.24006 20.7948 6.55753C20.6585 6.875 20.5903 7.26491 20.5903 7.72727C20.5903 8.18963 20.6585 8.57955 20.7948 8.89702C20.9333 9.21449 21.1272 9.45526 21.3765 9.61932C21.6258 9.78338 21.9177 9.86541 22.2522 9.86541C22.5867 9.86541 22.8786 9.78338 23.1279 9.61932C23.3772 9.45526 23.57 9.21449 23.7064 8.89702C23.8449 8.57955 23.9142 8.18963 23.9142 7.72727Z" fill="white"/>
</g>
<rect x="0.5" y="0.5" width="32" height="14" rx="3.5" stroke="white" stroke-opacity="0.6"/>
<defs>
<clipPath id="clip0_407_12766">
<rect x="1" y="1" width="31" height="13" rx="3" fill="white"/>
</clipPath>
</defs>
</svg>
