<svg width="53" height="24" viewBox="0 0 53 24" fill="none" xmlns="http://www.w3.org/2000/svg">
<path d="M0 24H52.9908V0H0V24ZM14.6986 16.399C12.4693 16.399 10.6562 14.9289 10.0658 12.8607H9.56116V16.242H7.54508V7.03668H10.9463C11.4765 7.03668 11.9427 7.11259 12.3451 7.26472C12.7472 7.41625 13.0836 7.6235 13.3531 7.88588C13.623 8.14795 13.8241 8.45433 13.9564 8.80343C14.0889 9.15298 14.1555 9.52613 14.1555 9.92112C14.1555 10.5193 14.0253 11.0415 13.7644 11.4879C13.504 11.9342 13.1361 12.25 12.6605 12.5173C12.5076 12.61 12.3341 12.6943 12.0921 12.7594C12.5576 13.7698 13.4977 14.4358 14.6986 14.4358V16.399ZM24.9223 16.2493H18.5399V7.03963H24.6286V8.86225H20.5565V10.6574H23.6224V12.4243H20.5565V14.4129H24.9223V16.2493ZM31.4004 10.1322C31.7266 10.3264 32.175 10.4885 32.7457 10.6177C33.0809 10.7011 33.4094 10.814 33.7308 10.9573C34.0527 11.101 34.3401 11.288 34.5942 11.5193C34.8474 11.7503 35.0512 12.035 35.2059 12.3725C35.3595 12.7096 35.4365 13.1187 35.4365 13.5991C35.4365 14.0151 35.3458 14.3994 35.1646 14.7505C34.9831 15.1024 34.737 15.4068 34.4241 15.666C34.1116 15.9251 33.7445 16.1264 33.3232 16.2695C32.9019 16.4125 32.4469 16.484 31.9575 16.484C31.5044 16.484 31.0925 16.44 30.7209 16.3522C30.3496 16.2644 30.0143 16.1493 29.7153 16.0055C29.4165 15.8626 29.1469 15.6984 28.9069 15.5133C28.6665 15.3288 28.4606 15.1391 28.288 14.9452L29.6066 13.4883C29.7242 13.6182 29.8628 13.7501 30.0208 13.8841C30.1792 14.0179 30.3559 14.1403 30.551 14.251C30.7459 14.3626 30.9587 14.4523 31.1898 14.5214C31.4205 14.5911 31.6676 14.626 31.9304 14.626C32.0843 14.626 32.2384 14.6028 32.3925 14.5563C32.5463 14.5104 32.687 14.4434 32.8138 14.3553C32.9405 14.2672 33.0428 14.1614 33.1199 14.0362C33.1964 13.9117 33.235 13.7707 33.235 13.6136C33.235 13.2716 33.0725 13.0057 32.7457 12.8161C32.4193 12.6264 31.9033 12.4395 31.1964 12.2544C30.8518 12.1709 30.5332 12.0507 30.2383 11.8937C29.944 11.7365 29.6905 11.5468 29.4775 11.3247C29.2645 11.1029 29.0991 10.8489 28.9815 10.5619C28.8637 10.2759 28.8046 9.95681 28.8046 9.60499C28.8046 9.21702 28.8727 8.85205 29.0086 8.50945C29.1443 8.16738 29.3505 7.86478 29.6267 7.60082C29.9031 7.33761 30.2475 7.12961 30.6594 6.97725C31.0721 6.82428 31.5585 6.74807 32.1208 6.74807C32.5829 6.74807 32.9905 6.79676 33.3434 6.894C33.6969 6.99131 33.9982 7.10662 34.2473 7.24038C34.4966 7.37444 34.7001 7.51356 34.859 7.65677C35.0173 7.79991 35.1375 7.9134 35.2192 7.99604L34.0369 9.3278C33.9366 9.24462 33.8215 9.15465 33.6903 9.05733C33.5591 8.96032 33.4118 8.87034 33.2485 8.78687C33.086 8.7037 32.9066 8.63421 32.7123 8.57886C32.5168 8.52351 32.3107 8.49561 32.0935 8.49561C31.9485 8.49561 31.8057 8.5186 31.6653 8.5651C31.5246 8.6113 31.3978 8.67398 31.2848 8.75201C31.1717 8.83095 31.081 8.92365 31.0131 9.02981C30.945 9.13627 30.9108 9.24916 30.9108 9.36946C30.9108 9.68363 31.0744 9.93761 31.4004 10.1322ZM46.6572 7.03963L43.4829 12.3833V16.2493H41.407V12.3968L38.2326 7.03963H40.5523L42.5198 10.5193L44.4322 7.03963H46.6572ZM11.791 10.9143C12.0104 10.6844 12.12 10.3945 12.12 10.0449C12.12 9.66745 12.0104 9.36833 11.791 9.14731C11.5717 8.9266 11.2697 8.81636 10.8858 8.81636H9.64948V11.2593H10.8858C11.2697 11.2593 11.5717 11.1442 11.791 10.9143Z" fill="#F94633"/>
</svg>
