<svg width="80" height="80" viewBox="0 0 80 80" fill="none" xmlns="http://www.w3.org/2000/svg">
<rect width="80" height="80" rx="40" fill="#12171A" fill-opacity="0.05"/>
<path d="M52.7073 51.2923L46.4485 45.0348C48.2626 42.8569 49.1672 40.0635 48.9741 37.2357C48.781 34.4079 47.5052 31.7634 45.412 29.8523C43.3188 27.9412 40.5694 26.9106 37.7357 26.975C34.902 27.0394 32.2022 28.1938 30.198 30.198C28.1938 32.2022 27.0394 34.902 26.975 37.7357C26.9106 40.5694 27.9412 43.3188 29.8523 45.412C31.7634 47.5052 34.4079 48.781 37.2357 48.9741C40.0635 49.1672 42.8569 48.2626 45.0348 46.4485L51.2923 52.7073C51.3852 52.8002 51.4955 52.8739 51.6169 52.9242C51.7383 52.9745 51.8684 53.0004 51.9998 53.0004C52.1312 53.0004 52.2613 52.9745 52.3827 52.9242C52.5041 52.8739 52.6144 52.8002 52.7073 52.7073C52.8002 52.6144 52.8739 52.5041 52.9242 52.3827C52.9745 52.2613 53.0004 52.1312 53.0004 51.9998C53.0004 51.8684 52.9745 51.7383 52.9242 51.6169C52.8739 51.4955 52.8002 51.3852 52.7073 51.2923ZM28.9998 37.9998C28.9998 36.2198 29.5276 34.4797 30.5166 32.9997C31.5055 31.5196 32.9111 30.3661 34.5556 29.6849C36.2002 29.0037 38.0098 28.8255 39.7556 29.1727C41.5014 29.52 43.1051 30.3772 44.3638 31.6358C45.6224 32.8945 46.4796 34.4982 46.8269 36.244C47.1741 37.9898 46.9959 39.7994 46.3147 41.4439C45.6335 43.0885 44.48 44.4941 42.9999 45.483C41.5199 46.472 39.7798 46.9998 37.9998 46.9998C35.6137 46.9972 33.326 46.0481 31.6388 44.3608C29.9515 42.6736 29.0024 40.3859 28.9998 37.9998Z" fill="#12171A" fill-opacity="0.6"/>
</svg>
