<svg width="198" height="24" viewBox="0 0 198 24" fill="none" xmlns="http://www.w3.org/2000/svg">
<path d="M179.44 23.726V0.320312H189.024C190.672 0.320312 192.113 0.636503 193.349 1.26888C194.585 1.90127 195.546 2.81174 196.233 4.00031C196.92 5.18888 197.263 6.61365 197.263 8.2746C197.263 9.95079 196.909 11.3641 196.2 12.5146C195.499 13.6651 194.513 14.5336 193.241 15.1203C191.976 15.707 190.498 16.0003 188.807 16.0003H183.083V11.0632H187.593C188.301 11.0632 188.905 10.9717 189.403 10.7889C189.909 10.5984 190.296 10.2975 190.563 9.88603C190.838 9.4746 190.975 8.93746 190.975 8.2746C190.975 7.60412 190.838 7.05936 190.563 6.64031C190.296 6.21365 189.909 5.90127 189.403 5.70317C188.905 5.49745 188.301 5.3946 187.593 5.3946H185.468V23.726H179.44ZM192.45 12.9832L198 23.726H191.452L186.032 12.9832H192.45Z" fill="#F94633"/>
<path d="M160.45 23.726V0.320312H176.451V5.44031H166.478V9.46317H175.627V14.5832H166.478V18.606H176.408V23.726H160.45Z" fill="#F94633"/>
<path d="M140.416 23.726V0.320312H149.999C151.647 0.320312 153.089 0.66317 154.325 1.34888C155.561 2.0346 156.522 2.99841 157.209 4.24031C157.895 5.48222 158.238 6.93365 158.238 8.5946C158.238 10.2708 157.884 11.7222 157.176 12.9489C156.475 14.1756 155.488 15.1203 154.216 15.7832C152.952 16.446 151.474 16.7775 149.783 16.7775H144.059V11.8403H148.568C149.277 11.8403 149.88 11.7108 150.379 11.4517C150.885 11.1851 151.271 10.8079 151.539 10.3203C151.813 9.83269 151.951 9.25746 151.951 8.5946C151.951 7.92412 151.813 7.35269 151.539 6.88031C151.271 6.40031 150.885 6.0346 150.379 5.78317C149.88 5.52412 149.277 5.3946 148.568 5.3946H146.444V23.726H140.416Z" fill="#F94633"/>
<path d="M137.561 0.320312V23.726H131.533V0.320312H137.561Z" fill="#F94633"/>
<path d="M128.681 0.320312V23.726H123.651L115.628 11.4289H115.498V23.726H109.471V0.320312H114.588L122.48 12.5717H122.653V0.320312H128.681Z" fill="#F94633"/>
<path d="M101.107 7.63429C101.049 6.87238 100.778 6.27809 100.294 5.85143C99.8172 5.42476 99.0909 5.21143 98.1152 5.21143C97.4936 5.21143 96.9841 5.29143 96.5866 5.45143C96.1963 5.60381 95.9073 5.81333 95.7194 6.08C95.5314 6.34667 95.4339 6.65143 95.4266 6.99429C95.4122 7.27619 95.4592 7.53143 95.5676 7.76C95.6832 7.98095 95.8639 8.18286 96.1096 8.36571C96.3553 8.54095 96.6697 8.70095 97.0528 8.84571C97.4358 8.99047 97.8911 9.12 98.4187 9.23428L100.24 9.64571C101.469 9.92 102.52 10.2819 103.395 10.7314C104.269 11.181 104.985 11.7105 105.541 12.32C106.098 12.9219 106.506 13.6 106.766 14.3543C107.034 15.1086 107.171 15.9314 107.178 16.8229C107.171 18.3619 106.806 19.6648 106.083 20.7314C105.361 21.7981 104.327 22.6095 102.983 23.1657C101.646 23.7219 100.038 24 98.1586 24C96.2289 24 94.5449 23.699 93.1067 23.0971C91.6757 22.4952 90.5627 21.5695 89.7677 20.32C88.9799 19.0629 88.5824 17.4552 88.5752 15.4971H94.2992C94.3353 16.2133 94.5052 16.8152 94.8087 17.3029C95.1123 17.7905 95.5387 18.16 96.0879 18.4114C96.6444 18.6629 97.3057 18.7886 98.0718 18.7886C98.7151 18.7886 99.2535 18.7048 99.6871 18.5371C100.121 18.3695 100.45 18.1371 100.674 17.84C100.898 17.5429 101.013 17.2038 101.021 16.8229C101.013 16.4648 100.901 16.1524 100.684 15.8857C100.475 15.6114 100.128 15.3676 99.6438 15.1543C99.1595 14.9333 98.5055 14.7276 97.6816 14.5371L95.47 14.0343C93.5042 13.5848 91.9539 12.8343 90.8193 11.7829C89.6918 10.7238 89.1317 9.28 89.1389 7.45143C89.1317 5.96571 89.5075 4.66667 90.2664 3.55429C91.0325 2.43429 92.0913 1.5619 93.4428 0.937143C94.8015 0.312381 96.359 0 98.1152 0C99.9075 0 101.458 0.316191 102.766 0.948572C104.074 1.58095 105.082 2.47238 105.791 3.62286C106.506 4.76571 106.867 6.10286 106.875 7.63429H101.107Z" fill="#F94633"/>
<path d="M58.8047 0.320312H65.526L69.8624 9.82888H70.0359L74.3722 0.320312H81.0936L72.9412 16.366V23.726H66.957V16.366L58.8047 0.320312Z" fill="#F94633"/>
<path d="M51.3504 7.63429C51.2926 6.87238 51.0216 6.27809 50.5374 5.85143C50.0604 5.42476 49.334 5.21143 48.3584 5.21143C47.7368 5.21143 47.2273 5.29143 46.8298 5.45143C46.4395 5.60381 46.1504 5.81333 45.9625 6.08C45.7746 6.34667 45.677 6.65143 45.6698 6.99429C45.6554 7.27619 45.7023 7.53143 45.8107 7.76C45.9264 7.98095 46.1071 8.18286 46.3528 8.36571C46.5985 8.54095 46.9129 8.70095 47.2959 8.84571C47.679 8.99047 48.1343 9.12 48.6619 9.23428L50.4832 9.64571C51.7118 9.92 52.7634 10.2819 53.6379 10.7314C54.5124 11.181 55.2279 11.7105 55.7844 12.32C56.3409 12.9219 56.7492 13.6 57.0094 14.3543C57.2768 15.1086 57.4141 15.9314 57.4213 16.8229C57.4141 18.3619 57.0491 19.6648 56.3264 20.7314C55.6037 21.7981 54.5702 22.6095 53.2259 23.1657C51.8889 23.7219 50.2808 24 48.4017 24C46.472 24 44.7881 23.699 43.3499 23.0971C41.9189 22.4952 40.8059 21.5695 40.0109 20.32C39.2231 19.0629 38.8256 17.4552 38.8184 15.4971H44.5424C44.5785 16.2133 44.7483 16.8152 45.0519 17.3029C45.3554 17.7905 45.7818 18.16 46.3311 18.4114C46.8876 18.6629 47.5489 18.7886 48.315 18.7886C48.9582 18.7886 49.4966 18.7048 49.9303 18.5371C50.3639 18.3695 50.6928 18.1371 50.9168 17.84C51.1409 17.5429 51.2565 17.2038 51.2637 16.8229C51.2565 16.4648 51.1445 16.1524 50.9276 15.8857C50.7181 15.6114 50.3711 15.3676 49.8869 15.1543C49.4027 14.9333 48.7486 14.7276 47.9247 14.5371L45.7132 14.0343C43.7474 13.5848 42.1971 12.8343 41.0624 11.7829C39.935 10.7238 39.3749 9.28 39.3821 7.45143C39.3749 5.96571 39.7507 4.66667 40.5095 3.55429C41.2756 2.43429 42.3344 1.5619 43.6859 0.937143C45.0446 0.312381 46.6021 0 48.3584 0C50.1507 0 51.701 0.316191 53.0091 0.948572C54.3172 1.58095 55.3254 2.47238 56.0337 3.62286C56.7492 4.76571 57.1106 6.10286 57.1178 7.63429H51.3504Z" fill="#F94633"/>
<path d="M20.3916 23.726V0.320312H36.3928V5.44031H26.4191V9.46317H35.5689V14.5832H26.4191V18.606H36.3494V23.726H20.3916Z" fill="#F94633"/>
<path d="M0 23.726V0.320312H9.58336C11.2312 0.320312 12.673 0.636503 13.9089 1.26888C15.1447 1.90127 16.106 2.81174 16.7926 4.00031C17.4791 5.18888 17.8224 6.61365 17.8224 8.2746C17.8224 9.95079 17.4683 11.3641 16.76 12.5146C16.059 13.6651 15.0725 14.5336 13.8005 15.1203C12.5357 15.707 11.0577 16.0003 9.36654 16.0003H3.64254V11.0632H8.15236C8.86063 11.0632 9.46411 10.9717 9.96279 10.7889C10.4687 10.5984 10.8554 10.2975 11.1228 9.88603C11.3974 9.4746 11.5347 8.93746 11.5347 8.2746C11.5347 7.60412 11.3974 7.05936 11.1228 6.64031C10.8554 6.21365 10.4687 5.90127 9.96279 5.70317C9.46411 5.49745 8.86063 5.3946 8.15236 5.3946H6.02754V23.726H0ZM13.0091 12.9832L18.5596 23.726H12.0117L6.59127 12.9832H13.0091Z" fill="#F94633"/>
</svg>
